nColumns=19
nRows=67
DataType=double
version=3
OpenSimVersion=4.1
endheader
time	ground_force_1_vx	ground_force_1_vy	ground_force_1_vz	ground_force_1_px	ground_force_1_py	ground_force_1_pz	ground_force_1_mx	ground_force_1_my	ground_force_1_mz	ground_force_2_vx	ground_force_2_vy	ground_force_2_vz	ground_force_2_px	ground_force_2_py	ground_force_2_pz	ground_force_2_mx	ground_force_2_my	ground_force_2_mz
1.15833	0	0	0	-0.000523489	0	-0.000346356	0	0	0	0	0	0	-0.000523458	0	-0.000346502	0	0	0
1.16667	0	0	0	-0.000523492	0	-0.000346356	0	0	0	0	0	0	-0.000523461	0	-0.000346503	0	0	0
1.175	0	0	0	-0.000523495	0	-0.000346356	0	0	0	0	0	0	-0.000523463	0	-0.000346505	0	0	0
1.18333	0	0	0	-0.000523497	0	-0.000346356	0	0	0	-2.9753	12.3175	0.954272	0.959266	0	-0.19041	0	-0.513299	0
1.19167	0	0	0	-0.0005235	0	-0.000346356	0	0	0	-6.65388	25.781	-0.716453	1.116	0	-0.264161	0	-0.552695	0
1.2	0	0	0	-0.000523502	0	-0.000346356	0	0	0	-14.2241	72.26	-2.47727	1.15315	0	-0.304634	0	-0.568557	0
1.20833	0	0	0	-0.000523505	0	-0.000346356	0	0	0	-27.7998	193.889	-3.19593	1.15717	0	-0.315414	0	-0.503539	0
1.21667	0	0	0	-0.000523507	0	-0.000346355	0	0	0	-48.1259	427.31	-1.1816	1.15612	0	-0.314651	0	-0.284383	0
1.225	0	0	0	-0.00052351	0	-0.000346355	0	0	0	-77.2009	737.087	3.44833	1.15177	0	-0.310544	-0	0.142248	-0
1.23333	0	0	0	-0.000523513	0	-0.000346355	0	0	0	-113.505	992.936	5.97949	1.14445	0	-0.306086	-0	0.758403	-0
1.24167	0	0	0	-0.000523515	0	-0.000346355	0	0	0	-146.831	1100.07	-0.259771	1.13395	0	-0.303401	-0	1.43264	-0
1.25	0	0	0	-0.000523518	0	-0.000346355	0	0	0	-174.034	1117.68	-14.2419	1.11911	0	-0.304352	-0	1.93568	-0
1.25833	0	0	0	-0.00052352	0	-0.000346355	0	0	0	-201.84	1159.77	-23.105	1.1013	0	-0.306855	-0	2.04584	-0
1.26667	0	0	0	-0.000523523	0	-0.000346355	0	0	0	-225.328	1271.57	-15.5278	1.08254	0	-0.306332	-0	1.69326	-0
1.275	0	0	0	-0.000523525	0	-0.000346354	0	0	0	-229.98	1426.67	1.95696	1.06063	0	-0.303429	-0	1.01681	-0
1.28333	0	0	0	-0.000523528	0	-0.000346354	0	0	0	-208.955	1569.36	10.8193	1.03557	0	-0.302195	-0	0.259119	-0
1.29167	0	0	0	-0.00052353	0	-0.000346354	0	0	0	-172.627	1664.35	3.4201	1.01015	0	-0.303812	0	-0.411833	0
1.3	0	0	0	-0.000523533	0	-0.000346354	0	0	0	-139.12	1716.81	-8.01991	0.986072	0	-0.306094	0	-0.979941	0
1.30833	0	0	0	-0.000523535	0	-0.000346354	0	0	0	-112.704	1747.92	-8.34596	0.962609	0	-0.306653	0	-1.49319	0
1.31667	0	0	0	-0.000523538	0	-0.000346354	0	0	0	-83.4068	1763.86	1.28449	0.938211	0	-0.305735	0	-1.92839	0
1.325	0	0	0	-0.00052354	0	-0.000346354	0	0	0	-46.247	1751.29	6.83841	0.912988	0	-0.305507	0	-2.16	0
1.33333	0	0	0	-0.000523543	0	-0.000346354	0	0	0	-4.14511	1703.11	0.339563	0.887116	0	-0.306923	0	-2.04661	0
1.34167	0	0	0	-0.000523545	0	-0.000346353	0	0	0	39.2239	1631.96	-11.9159	0.860172	0	-0.308648	0	-1.52407	0
1.35	0	0	0	-0.000523548	0	-0.000346353	0	0	0	82.9751	1554.19	-20.2252	0.832392	0	-0.308805	0	-0.622647	0
1.35833	0	0	0	-0.00052355	0	-0.000346353	0	0	0	127.385	1469.18	-24.0312	0.804256	0	-0.307353	-0	0.5632	-0
1.36667	0	0	0	-0.000523553	0	-0.000346353	0	0	0	168.718	1362.41	-29.837	0.775663	0	-0.305872	-0	1.8859	-0
1.375	0	0	0	-0.000523555	0	-0.000346353	0	0	0	201.715	1227.63	-40.105	0.746359	0	-0.305276	-0	3.13401	-0
1.38333	0	0	0	-0.000523557	0	-0.000346353	0	0	0	220.823	1074.03	-49.3667	0.717335	0	-0.30486	-0	4.05334	-0
1.39167	0	0	0	-0.00052356	0	-0.000346353	0	0	0	223.654	912.614	-51.249	0.689934	0	-0.303404	-0	4.42321	-0
1.4	0	0	0	-0.000523562	0	-0.000346353	0	0	0	213.367	746.981	-45.5566	0.664145	0	-0.300992	-0	4.1421	-0
1.40833	0	0	0	-0.000523565	0	-0.000346352	0	0	0	192.314	577.976	-36.7993	0.639135	0	-0.299321	-0	3.2619	-0
1.41667	0	0	0	-0.000523567	0	-0.000346352	0	0	0	160.365	414.139	-28.1259	0.613994	0	-0.299658	-0	1.95913	-0
1.425	0	0	0	-0.000523569	0	-0.000346352	0	0	0	120.887	273.082	-19.2978	0.58966	0	-0.300968	-0	0.477406	-0
1.43333	0	0	0	-0.000523572	0	-0.000346352	0	0	0	82.2319	168.43	-9.72522	0.570688	0	-0.299749	0	-0.927077	0
1.44167	0	0	0	-0.000523574	0	-0.000346352	0	0	0	51.2421	99.5439	-0.99346	0.561268	0	-0.291438	0	-2.03269	0
1.45	0	0	0	-0.000523576	0	-0.000346352	0	0	0	28.0484	56.3513	4.30075	0.567425	0	-0.273308	0	-2.69498	0
1.45833	0	0	0	-0.000523579	0	-0.000346352	0	0	0	10.823	29.6536	5.33863	0.619859	0	-0.243608	0	-2.8728	0
1.46667	0	0	0	-0.000523581	0	-0.000346352	0	0	0	0.280663	14.5054	4.02072	0.774329	0	-0.193717	0	-2.6186	0
1.475	0	0	0	-0.000523583	0	-0.000346351	0	0	0	0	0	0	-0.000523538	0	-0.000346562	0	0	0
1.48333	0	0	0	-0.000523585	0	-0.000346351	0	0	0	0	0	0	-0.00052354	0	-0.000346563	0	0	0
1.49167	0	0	0	-0.000523588	0	-0.000346351	0	0	0	0	0	0	-0.000523542	0	-0.000346565	0	0	0
1.5	0	0	0	-0.00052359	0	-0.000346351	0	0	0	0	0	0	-0.000523544	0	-0.000346566	0	0	0
1.50833	0	0	0	-0.000523592	0	-0.000346351	0	0	0	0	0	0	-0.000523546	0	-0.000346567	0	0	0
1.51667	0	0	0	-0.000523594	0	-0.000346351	0	0	0	0	0	0	-0.000523548	0	-0.000346569	0	0	0
1.525	-0.29889	11.1881	1.70682	0.8356	0	-0.148341	-0	4.6198	-0	0	0	0	-0.000523549	0	-0.00034657	0	0	0
1.53333	-2.93958	19.2049	0.789556	1.02024	0	-0.201524	-0	5.26654	-0	0	0	0	-0.000523551	0	-0.000346572	0	0	0
1.54167	-9.19295	44.4973	-1.4228	1.15289	0	-0.275688	-0	5.218	-0	0	0	0	-0.000523553	0	-0.000346573	0	0	0
1.55	-18.5306	120.279	-2.85592	1.18491	0	-0.314529	-0	4.29986	-0	0	0	0	-0.000523555	0	-0.000346574	0	0	0
1.55833	-28.9193	292.683	2.09044	1.18626	0	-0.324819	-0	2.53615	-0	0	0	0	-0.000523557	0	-0.000346576	0	0	0
1.56667	-40.7463	566.804	18.5693	1.18099	0	-0.325799	-0	0.234751	-0	0	0	0	-0.000523558	0	-0.000346577	0	0	0
1.575	-61.4422	846.034	44.1651	1.17285	0	-0.32452	0	-2.03479	0	0	0	0	-0.00052356	0	-0.000346578	0	0	0
1.58333	-94.8128	997.783	65.4295	1.16294	0	-0.323377	0	-3.61684	0	0	0	0	-0.000523562	0	-0.00034658	0	0	0
1.59167	-132.459	1010.53	66.5574	1.15113	0	-0.323836	0	-4.04406	0	0	0	0	-0.000523564	0	-0.000346581	0	0	0
1.6	-169.262	997.876	46.145	1.13611	0	-0.326139	0	-3.25008	0	0	0	0	-0.000523565	0	-0.000346582	0	0	0
1.60833	-204.826	1053.34	21.842	1.11881	0	-0.327363	0	-1.56387	0	0	0	0	-0.000523567	0	-0.000346583	0	0	0
1.61667	-227.33	1184.79	12.558	1.09947	0	-0.32495	-0	0.5143	-0	0	0	0	-0.000523569	0	-0.000346585	0	0	0
1.625	-228.062	1350.34	18.0714	1.07676	0	-0.321204	-0	2.57546	-0	0	0	0	-0.00052357	0	-0.000346586	0	0	0
1.63333	-205.197	1501.21	21.9824	1.05111	0	-0.319299	-0	4.41136	-0	0	0	0	-0.000523572	0	-0.000346587	0	0	0
1.64167	-165.256	1613.69	13.4457	1.02402	0	-0.319604	-0	5.95127	-0	0	0	0	-0.000523574	0	-0.000346588	0	0	0
1.65	-125.549	1691.82	-0.749816	0.997499	0	-0.320329	-0	7.16266	-0	0	0	0	-0.000523575	0	-0.00034659	0	0	0
1.65833	-94.9037	1747.85	-7.46794	0.972148	0	-0.319524	-0	8.02697	-0	0	0	0	-0.000523577	0	-0.000346591	0	0	0
1.66667	-68.868	1782.32	-4.65023	0.947572	0	-0.317348	-0	8.56362	-0	0	0	0	-0.000523578	0	-0.000346592	0	0	0
1.675	-39.2572	1784.3	-1.7203	0.923241	0	-0.3157	-0	8.81519	-0	0	0	0	-0.00052358	0	-0.000346593	0	0	0
1.68333	-3.58304	1749.7	-4.86722	0.898274	0	-0.31563	-0	8.78495	-0	0	0	0	-0.000523581	0	-0.000346594	0	0	0
1.69167	34.1686	1687.3	-8.89227	0.872141	0	-0.316289	-0	8.40545	-0	0	0	0	-0.000523583	0	-0.000346595	0	0	0
1.7	73.1415	1609.68	-5.52996	0.844838	0	-0.316283	-0	7.58989	-0	0	0	0	-0.000523584	0	-0.000346596	0	0	0
1.70833	114.98	1519.53	5.43444	0.816784	0	-0.315676	-0	6.32013	-0	0	0	0	-0.000523586	0	-0.000346597	0	0	0
